# xmcd CD database file generated by Grip 3.2.0
# 
# Track frame offsets:
#       150
#       13225
#       26682
#       42322
#       57757
#       71332
#       85750
#       102347
#       115482
#       135575
# 
# Disc length: 2396 seconds
# 
# Revision: 3
# Processed by: cddbd v1.5.1PL0 Copyright (c) Steve Scherf et al.
# Submitted via: Grip 3.2.0
# 
DISCID=82095a0a
DTITLE=noodles - long long chain
DYEAR=2001
DGENRE=Rock
TTITLE0=MUSIC LIFE
TTITLE1=HUSH BELL
TTITLE2=ハーフメトロノーム
TTITLE3=minimum talk
TTITLE4=シュガードラム
TTITLE5=FLASH
TTITLE6=october dim happiness
TTITLE7=FIVE
TTITLE8=Booster
TTITLE9=long long chain
EXTD=YEAR: 2001
EXTT0=
EXTT1=
EXTT2=
EXTT3=
EXTT4=
EXTT5=
EXTT6=
EXTT7=
EXTT8=
EXTT9=
PLAYORDER=
